<?xml version="1.0" encoding="utf-8"?>
<!-- Generator: Adobe Illustrator 19.0.0, SVG Export Plug-In . SVG Version: 6.00 Build 0)  -->
<svg id="CSITauthority-logo-2017" version="1.1" xmlns="http://www.w3.org/2000/svg" xmlns:xlink="http://www.w3.org/1999/xlink" x="0px" y="0px"
	 viewBox="0 0 600 600" style="enable-background:new 0 0 600 600;" xml:space="preserve">
<g>
	<path d="M38.1,365l0.2-10.2l0.1-5.1l0.3-5.5c0.2-3.7,0.5-7.4,0.7-11l1.2-10.7c1.8-14.3,4.4-28.5,8.2-42.5
		c0.5-1.7,0.9-3.5,1.4-5.2l1.6-5.2l1.6-5.2l0.8-2.6l0.9-2.6l3.8-10.2l4.3-10c5.9-13.3,12.9-26.1,20.8-38.3
		c16-24.3,36.2-45.9,59.3-63.5c23.1-17.6,49.1-31.2,76.5-40.4c13.7-4.6,27.7-8.1,42-10.4c14.2-2.3,28.7-3.5,43.1-3.4
		c28.9,0.1,57.8,5,85,15.2c27.1,10.2,52.5,25.8,73.4,46c10.5,10.1,19.8,21.4,27.9,33.4c8.1,12,14.9,24.8,20.5,38.1l3.9,10
		c1.2,3.4,2.3,6.8,3.4,10.2l0.8,2.6c0.3,0.9,0.5,1.7,0.7,2.6l1.4,5.2l1.4,5.2c0.4,1.7,0.8,3.5,1.2,5.2l1.1,5.2
		c0.4,1.7,0.8,3.5,1.1,5.2l1.7,10.5c0.3,1.7,0.5,3.5,0.7,5.3l0.6,5.3l0.6,5.3c0.2,1.8,0.3,3.5,0.4,5.3l0.7,10.6l0.2,10.6l0.1,5.3
		l0,5.1c0,3.6-0.1,7-0.3,10.6c-0.2,3.6-0.4,7.1-0.7,10.8c-0.4,3.7-0.8,7.4-1.7,11.4c-0.2,1-0.5,2-0.8,3.1l-0.5,1.6l-0.6,1.8
		c-0.2,0.6-0.5,1.3-0.8,1.9c-0.2,0.3-0.3,0.6-0.5,1l-0.6,1.1c-0.8,1.4-2.1,3.2-4,4.9c-0.5,0.4-1.2,0.9-1.8,1.3
		c-0.3,0.2-0.6,0.4-1,0.6c-0.4,0.2-0.8,0.4-1.1,0.5c-0.8,0.3-1.5,0.6-2.4,0.8c-0.8,0.2-1.7,0.3-2.5,0.4c-0.8,0.1-1.5,0-2.3-0.1
		c-0.4,0-0.8-0.1-1.1-0.1l-0.9-0.2c-0.6-0.1-1.3-0.3-1.8-0.5c-0.5-0.2-1-0.4-1.5-0.6c-1.9-0.9-3.2-1.8-4.3-2.6
		c-1.1-0.9-2.1-1.7-2.9-2.5c-1.7-1.7-3-3.2-4.3-4.8c-1.3-1.6-2.4-3.1-3.5-4.6c-2.1-3.1-4.1-6.1-5.9-9.1
		c-3.7-6.1-7.1-12.1-10.4-18.2c-6.6-12.1-12.9-24.2-19.2-36.3c-12.6-24.1-25.3-48-38.8-71.5c-13.5-23.4-27.6-46.4-43.1-68.4
		c-15.4-22-32.1-43.1-50.6-62.4c-18.5-19.2-39-36.5-61.9-49.5c-11.4-6.5-23.5-11.8-36-15.6c-12.5-3.8-25.4-5.9-38.4-6.3l-0.6-13
		c13.9-1.5,27.9-2.6,41.8-3.3c14-0.7,28-1,42-0.8c28,0.5,56.1,3,83.7,8.7c13.8,2.8,27.4,6.5,40.7,11.1
		c13.3,4.6,26.3,10.1,38.8,16.8c12.4,6.7,24.3,14.4,35.4,23.2c11,8.8,21.2,18.7,30.4,29.4c9.1,10.7,17.2,22.4,24.2,34.5l1.3,2.3
		l1.2,2.3l2.5,4.6c1.6,3.1,3.1,6.3,4.7,9.4c1.4,3.2,2.9,6.4,4.3,9.6l2,4.9l1,2.4l0.9,2.5c10,26.2,16.1,53.6,19.7,81.2
		c1.8,13.8,2.9,27.7,3.6,41.6c0.6,13.9,0.8,27.8,0.4,41.7c-0.3,13.9-1,27.8-2.1,41.6c-1.1,13.8-2.5,27.7-4.2,41.4l0,0.4l-0.4,0
		l-43-2.1l43,1.4l-0.4,0.3c1.4-13.8,2.6-27.6,3.5-41.4c0.8-13.8,1.3-27.7,1.3-41.5c0.1-13.9-0.3-27.7-1.2-41.5
		c-0.9-13.8-2.3-27.6-4.3-41.2c-4.1-27.3-10.7-54.3-20.9-79.8l-0.9-2.4l-1-2.4l-2-4.7c-1.4-3.1-2.9-6.2-4.4-9.3
		c-1.6-3-3.1-6.1-4.7-9.1l-2.5-4.5l-1.3-2.2l-1.3-2.2c-7.1-11.7-15.1-22.9-24.1-33.1c-9.1-10.2-19.1-19.6-29.9-27.9
		c-10.8-8.3-22.4-15.5-34.6-21.7c-12.1-6.3-24.8-11.4-37.8-15.6c-13-4.2-26.3-7.5-39.7-10c-26.9-5-54.4-7-81.8-7
		c-13.7,0-27.5,0.5-41.2,1.5c-13.7,1-27.4,2.3-41.1,4l-0.6-13c14.2,0.1,28.4,2.2,42.1,6.1c13.7,3.8,26.8,9.4,39.2,16.1
		c12.4,6.7,24.1,14.6,35.1,23.2c11,8.6,21.4,17.9,31.2,27.8c19.6,19.7,37.2,41.1,53.4,63.4c16.2,22.3,31.1,45.4,45.2,69
		c14.1,23.5,27.4,47.5,40.4,71.4c6.5,11.9,13,23.9,19.7,35.6c3.3,5.8,6.7,11.6,10.2,17.1c1.7,2.7,3.5,5.4,5.3,7.9
		c0.9,1.2,1.8,2.4,2.7,3.5c0.9,1.1,1.8,2.1,2.5,2.8c0.4,0.4,0.7,0.6,0.9,0.8c0.2,0.1,0.3,0.2,0,0c-0.1,0-0.2-0.1-0.3-0.1
		c-0.2-0.1-0.4-0.2-0.6-0.2c-0.1,0-0.2,0-0.3,0c-0.2,0-0.3-0.1-0.5-0.1c-0.3,0-0.7,0-1,0c-0.4,0-0.8,0.1-1.2,0.2
		c-0.4,0.1-0.8,0.2-1.2,0.4c-0.2,0.1-0.4,0.2-0.5,0.3c-0.2,0.1-0.3,0.1-0.4,0.2c-0.3,0.2-0.5,0.4-0.7,0.5c-0.7,0.5-0.9,1-0.9,0.9
		c0,0,0,0,0,0c0,0,0-0.1,0.1-0.2c0-0.1,0.1-0.2,0.2-0.5l0.2-0.6l0.2-0.8c0.2-0.5,0.3-1.2,0.4-1.8c0.5-2.6,0.9-5.7,1.1-8.8
		c0.2-3.1,0.4-6.4,0.5-9.6c0.1-3.3,0.1-6.6,0.1-9.8l0-5.1l-0.2-4.9l-0.4-9.8l-0.8-9.8c-0.2-1.6-0.2-3.3-0.4-4.9l-0.7-4.9l-0.6-4.9
		c-0.2-1.6-0.4-3.2-0.7-4.8l-1.8-9.6c-0.3-1.6-0.7-3.2-1.1-4.8l-1.1-4.7c-0.4-1.6-0.7-3.2-1.1-4.7l-1.4-4.7l-1.4-4.7
		c-0.2-0.8-0.4-1.6-0.7-2.3l-0.8-2.3c-1.1-3-2.1-6.1-3.2-9.1l-3.7-8.9c-10.4-23.5-25.1-44.8-43.7-62.1
		c-18.6-17.3-40.8-30.5-64.8-38.9c-24-8.5-49.6-12.4-75.2-12c-12.8,0.2-25.6,1.4-38.2,3.7c-12.6,2.3-25,5.6-37,9.9
		c-24.1,8.6-46.7,21-66.7,36.7c-19.9,15.8-37.1,34.9-50.6,56.3c-6.7,10.7-12.5,22-17.5,33.7l-3.6,8.8l-3.1,9l-0.8,2.2l-0.7,2.3
		l-1.3,4.6l-1.3,4.6c-0.4,1.5-0.8,3.1-1.1,4.6c-3.2,12.3-5.2,25-6.6,37.7l-0.9,9.6l-0.5,9.4l-0.2,4.7l0,5.1l0,10.2L38.1,365z"/>
</g>
<g>
	<path d="M532.2,423.3c0,0-0.6,2.5-1.8,7.1c-0.3,1.2-0.6,2.4-1,3.9c-0.5,1.6-1,3.3-1.6,5.2c-0.6,1.9-1.2,3.9-1.9,6
		c-0.7,2.1-1.5,4.2-2.4,6.5c-0.4,1.1-0.9,2.3-1.3,3.5c-0.2,0.6-0.5,1.2-0.7,1.8c-0.3,0.6-0.5,1.2-0.8,1.8c-1.1,2.5-2.2,5-3.4,7.7
		c-1.2,2.7-2.6,5.4-4,8.2c-1.4,2.9-3,5.7-4.7,8.6c-6.7,11.7-15.6,24.3-26.9,36.5c-11.2,12.3-25.1,23.8-40.9,33.9
		c-8,4.9-16.3,9.7-25.3,13.8c-1.1,0.5-2.2,1-3.3,1.6c-1.1,0.5-2.3,1-3.4,1.4c-2.3,0.9-4.6,1.9-6.9,2.8c-4.7,1.7-9.3,3.5-14.2,5
		c-4.8,1.6-9.7,2.9-14.6,4.2c-5,1.1-10,2.4-15,3.3c-5.1,1-10.2,1.7-15.3,2.5c-5.2,0.6-10.3,1.2-15.6,1.5
		c-5.2,0.5-10.5,0.5-15.7,0.7c-5.3,0-10.5,0.1-15.8-0.2c-5.3-0.1-10.5-0.6-15.8-1c-5.2-0.6-10.5-1.1-15.7-2
		c-5.2-0.7-10.4-1.8-15.6-2.8c-2.6-0.6-5.1-1.2-7.7-1.7l-1.9-0.4l-1.9-0.5l-3.8-1l-3.8-1c-1.3-0.3-2.5-0.7-3.8-1.1
		c-2.5-0.8-5-1.5-7.5-2.3c-2.5-0.9-4.9-1.7-7.4-2.5l-1.8-0.6l-1.8-0.7l-3.6-1.4l-3.6-1.4c-1.2-0.5-2.4-1-3.6-1.5
		c-2.4-1-4.7-2-7-3.1c-4.6-2.2-9.2-4.4-13.7-6.8c-4.5-2.3-8.8-4.9-13.1-7.4c-4.2-2.7-8.4-5.3-12.4-8.1c-16.2-11.1-30.2-24-42-37.5
		c-11.7-13.5-21-27.7-28.2-41.5c-7.1-13.8-12-27.2-15.4-39.3c-1-3-1.5-6-2.3-8.8c-0.3-1.4-0.7-2.8-1-4.2c-0.3-1.4-0.5-2.7-0.8-4.1
		c-0.5-2.7-1-5.2-1.4-7.6c-0.3-2.5-0.6-4.8-0.9-7c-0.7-4.4-0.9-8.4-1.2-11.9c-0.1-1.7-0.3-3.3-0.4-4.8c-0.1-1.5-0.1-2.8-0.1-4
		c-0.2-4.8-0.3-7.3-0.3-7.3s0.2,2.5,0.7,7.3c0.1,1.2,0.2,2.5,0.4,4c0.1,1.5,0.4,3,0.6,4.8c0.5,3.4,0.9,7.4,1.9,11.7
		c0.4,2.2,0.9,4.5,1.3,6.9c0.6,2.4,1.2,4.9,1.8,7.5c0.3,1.3,0.6,2.6,1,4c0.4,1.3,0.8,2.7,1.2,4.1c0.9,2.8,1.6,5.6,2.7,8.5
		c4,11.7,9.5,24.5,17.2,37.5c7.7,13,17.5,26.2,29.4,38.5c12.1,12.2,26.1,23.8,42.1,33.5c3.9,2.5,8.1,4.7,12.2,7.1
		c4.2,2.1,8.4,4.4,12.8,6.3c4.3,2.1,8.8,3.8,13.3,5.7c2.3,0.9,4.5,1.7,6.8,2.5c1.1,0.4,2.3,0.9,3.4,1.2l3.5,1.1l3.5,1.1l1.7,0.6
		l1.8,0.5c2.4,0.7,4.7,1.3,7.1,2c2.4,0.6,4.8,1.2,7.2,1.8c1.2,0.3,2.4,0.6,3.6,0.9l3.6,0.7l3.6,0.7l1.8,0.4l1.8,0.3l7.3,1.2
		c4.9,0.6,9.8,1.4,14.7,1.8c4.9,0.5,9.8,0.7,14.7,1c4.9,0.1,9.8,0.3,14.7,0.1c4.9,0,9.8-0.4,14.6-0.6c4.8-0.5,9.7-0.8,14.4-1.5
		c4.8-0.5,9.5-1.4,14.2-2.2c4.7-1,9.3-1.9,13.8-3.1c4.6-1,9-2.5,13.4-3.7c4.4-1.5,8.7-2.8,12.9-4.6c4.3-1.5,8.3-3.4,12.4-5.2
		c2-0.9,4-1.9,5.9-2.9c1-0.5,2-1,2.9-1.4c1-0.5,1.9-1,2.9-1.6c7.7-4,14.7-8.6,21.4-13.3c13.2-9.6,24.4-20.1,33.3-31
		c8.9-10.8,15.7-21.8,20.8-31.9c1.2-2.5,2.5-5,3.5-7.4c1-2.4,2.1-4.8,3-7c0.8-2.3,1.7-4.5,2.4-6.6c0.2-0.5,0.4-1,0.6-1.6
		c0.2-0.5,0.3-1,0.5-1.6c0.3-1,0.6-2,0.9-3c0.6-1.9,1.2-3.8,1.7-5.5c0.4-1.7,0.8-3.3,1.2-4.7c0.4-1.5,0.7-2.8,1-4.1
		c0.3-1.4,0.6-2.8,0.8-3.9c0.9-4.7,1.4-7.2,1.4-7.2L532.2,423.3z"/>
</g>
</svg>
